<?xml version="1.0" standalone="no"?>
<!DOCTYPE svg PUBLIC "-//W3C//DTD SVG 20010904//EN"
 "http://www.w3.org/TR/2001/REC-SVG-20010904/DTD/svg10.dtd">
<svg version="1.0" xmlns="http://www.w3.org/2000/svg"
 width="600.000000pt" height="600.000000pt" viewBox="0 0 600.000000 600.000000"
 preserveAspectRatio="xMidYMid meet">
<metadata>
Created by potrace 1.14, written by Peter Selinger 2001-2017
</metadata>
<g transform="translate(0.000000,600.000000) scale(0.100000,-0.100000)"
fill="#000000" stroke="none">
<path d="M2848 5704 c-2 -1 -42 -5 -90 -9 -48 -3 -96 -8 -106 -10 -11 -2 -37
-6 -58 -10 -77 -12 -99 -15 -124 -20 -14 -3 -34 -7 -45 -9 -20 -4 -111 -28
-230 -61 -33 -9 -62 -20 -65 -23 -3 -4 -13 -8 -24 -10 -10 -2 -30 -8 -45 -13
-14 -6 -27 -10 -28 -10 -18 2 -323 -150 -323 -160 0 -6 -4 -8 -8 -5 -5 3 -32
-10 -61 -29 -29 -19 -55 -35 -57 -35 -16 0 -267 -186 -323 -238 -24 -23 -46
-42 -50 -42 -10 0 -46 -44 -43 -53 1 -4 -1 -6 -5 -5 -13 5 -102 -85 -96 -95 3
-6 1 -7 -4 -4 -6 4 -28 -15 -49 -41 -21 -26 -44 -51 -51 -55 -7 -4 -13 -15
-13 -22 0 -8 -4 -15 -9 -15 -11 0 -173 -218 -175 -237 -1 -8 -7 -18 -13 -21
-25 -16 -161 -273 -213 -402 -12 -30 -26 -63 -31 -73 -5 -10 -7 -22 -4 -27 3
-4 1 -10 -3 -12 -13 -5 -89 -243 -96 -302 -2 -12 -8 -39 -14 -61 -6 -22 -13
-58 -17 -79 -3 -21 -7 -48 -10 -60 -33 -149 -38 -614 -9 -760 2 -12 7 -41 9
-66 3 -25 8 -52 10 -60 2 -8 7 -31 10 -50 21 -127 92 -358 155 -506 53 -123
151 -314 162 -314 4 0 8 -8 8 -18 0 -10 8 -27 18 -38 19 -23 39 -52 49 -74 4
-8 12 -20 17 -27 30 -34 36 -43 36 -53 0 -5 4 -10 8 -10 4 0 15 -12 24 -28 9
-15 25 -36 35 -47 10 -11 40 -47 67 -80 27 -33 53 -59 58 -57 5 1 7 -1 4 -6
-5 -9 199 -213 265 -264 19 -14 45 -36 59 -48 61 -53 281 -200 300 -200 5 0
10 -4 10 -9 0 -5 8 -11 17 -14 10 -4 60 -29 112 -56 52 -28 98 -48 103 -45 4
3 8 1 8 -4 0 -8 132 -65 170 -74 8 -2 17 -6 20 -10 3 -4 15 -9 25 -11 11 -2
27 -7 35 -10 35 -13 157 -49 175 -52 11 -1 27 -5 35 -7 62 -21 234 -51 375
-66 91 -9 488 -8 540 1 22 5 65 10 94 13 30 2 89 12 130 20 42 9 85 18 96 20
11 2 50 12 88 23 37 11 70 20 72 20 3 1 6 1 8 2 1 0 9 2 17 4 8 1 42 13 75 25
181 67 316 125 327 144 4 6 8 7 8 3 0 -9 132 61 141 75 3 5 10 9 14 7 10 -3
215 131 215 142 0 5 5 9 11 9 26 0 297 234 292 252 -2 5 1 7 5 5 7 -2 63 52
127 124 57 64 156 189 150 189 -3 0 4 10 15 23 12 12 31 38 43 57 11 19 23 37
26 40 19 17 86 143 83 154 -2 6 0 8 4 3 11 -11 157 287 157 321 0 6 4 12 9 12
4 0 7 3 6 8 -1 7 5 27 22 67 8 18 50 153 56 180 45 186 60 260 70 340 2 22 8
65 11 95 16 122 9 520 -11 640 -2 14 -8 48 -12 75 -8 58 -6 47 -30 150 -10 44
-17 83 -16 88 1 4 -2 7 -7 7 -5 0 -8 6 -7 13 2 22 -37 147 -46 147 -5 0 -7 4
-4 9 6 9 -60 187 -78 210 -6 7 -11 19 -12 25 -3 26 -17 56 -27 56 -6 0 -8 3
-4 6 9 9 -142 282 -168 304 -8 7 -15 17 -15 22 0 15 -101 148 -113 148 -6 0
-8 3 -4 6 7 7 -75 108 -139 172 -24 24 -44 46 -44 48 0 10 -134 129 -142 126
-5 -1 -7 2 -4 7 3 5 -4 16 -17 24 -12 8 -31 23 -42 34 -11 10 -49 41 -85 68
-36 27 -68 54 -72 60 -5 6 -8 6 -8 0 0 -6 -3 -6 -8 1 -13 20 -297 195 -322
199 -3 1 -38 18 -79 38 -41 20 -81 38 -90 39 -9 2 -18 5 -21 8 -9 10 -112 50
-129 50 -10 0 -21 4 -26 9 -12 11 -115 42 -115 34 0 -3 -6 -1 -12 5 -13 10
-168 51 -222 58 -15 2 -35 6 -45 8 -9 3 -34 8 -56 11 -22 3 -49 7 -60 9 -69
14 -497 31 -507 20z"/>
</g>
</svg>
